<svg width="32" height="33" viewBox="0 0 32 33" fill="none" xmlns="http://www.w3.org/2000/svg">
<rect x="1" y="1.24316" width="30" height="30" stroke="#D0D7FB" stroke-opacity="0.17" stroke-width="2"/>
<path fill-rule="evenodd" clip-rule="evenodd" d="M16.8352 21.9124C19.6163 21.4693 21.7418 19.0598 21.7418 16.1539C21.7418 12.9333 19.1311 10.3225 15.9105 10.3225C12.6899 10.3225 10.0791 12.9333 10.0791 16.1539C10.0791 19.0598 12.2046 21.4692 14.9858 21.9123C14.9804 21.899 14.9774 21.8843 14.9774 21.869V17.9037C14.9774 17.8393 14.9252 17.7871 14.8608 17.7871H13.6945C13.6301 17.7871 13.5779 17.7348 13.5779 17.6704V16.2709C13.5779 16.2065 13.6301 16.1543 13.6945 16.1543H14.8608C14.9252 16.1543 14.9774 16.1021 14.9774 16.0376V14.5215C14.9774 13.8217 15.7238 12.6554 16.8435 12.6554H18.3596C18.4241 12.6554 18.4763 12.7077 18.4763 12.7721V14.1716C18.4763 14.236 18.424 14.2882 18.3596 14.2882H17.6599C17.4266 14.2882 16.8435 14.5215 16.8435 14.988V16.0377C16.8435 16.1021 16.8957 16.1543 16.9601 16.1543H18.1264C18.1908 16.1543 18.243 16.2065 18.243 16.2709V17.6704C18.243 17.7348 18.1908 17.7871 18.1264 17.7871H16.9601C16.8957 17.7871 16.8435 17.8393 16.8435 17.9037V21.869C16.8435 21.8843 16.8405 21.899 16.8352 21.9124Z" fill="#F5F8FB"/>
</svg>
