<svg width="32" height="33" viewBox="0 0 32 33" fill="none" xmlns="http://www.w3.org/2000/svg">
<rect x="1" y="1.24316" width="30" height="30" stroke="#D0D7FB" stroke-opacity="0.17" stroke-width="2"/>
<path fill-rule="evenodd" clip-rule="evenodd" d="M13.4625 10.1263C14.1187 10.0961 14.3279 10.0894 15.9996 10.0894C17.6712 10.0894 17.8804 10.0966 18.5361 10.1263C19.1917 10.1559 19.6393 10.2605 20.0309 10.4122C20.4409 10.5671 20.813 10.8094 21.1207 11.1226C21.434 11.4298 21.6756 11.8012 21.83 12.2119C21.9822 12.6035 22.0863 13.051 22.1165 13.7056C22.1467 14.3629 22.1534 14.5722 22.1534 16.2432C22.1534 17.9148 22.1461 18.124 22.1165 18.7803C22.0868 19.4348 21.9822 19.8824 21.83 20.274C21.6756 20.6847 21.4336 21.0567 21.1207 21.3643C20.813 21.6776 20.4409 21.9193 20.0309 22.0737C19.6393 22.2259 19.1917 22.3299 18.5372 22.3601C17.8804 22.3903 17.6712 22.3971 15.9996 22.3971C14.3279 22.3971 14.1187 22.3898 13.4625 22.3601C12.8079 22.3305 12.3604 22.2259 11.9688 22.0737C11.5581 21.9193 11.186 21.6772 10.8784 21.3643C10.5654 21.057 10.3231 20.6851 10.1685 20.2745C10.0169 19.8829 9.91284 19.4354 9.88263 18.7808C9.85242 18.1235 9.8457 17.9143 9.8457 16.2432C9.8457 14.5716 9.85298 14.3624 9.88263 13.7067C9.91228 13.051 10.0169 12.6035 10.1685 12.2119C10.3233 11.8013 10.5658 11.4294 10.879 11.1221C11.1861 10.8091 11.5579 10.5668 11.9682 10.4122C12.3598 10.2605 12.8074 10.1565 13.4619 10.1263H13.4625ZM18.4863 11.234C17.8373 11.2043 17.6426 11.1982 15.9996 11.1982C14.3565 11.1982 14.1618 11.2043 13.5128 11.234C12.9126 11.2614 12.587 11.3615 12.3699 11.446C12.0829 11.5579 11.8776 11.6905 11.6622 11.9059C11.458 12.1045 11.3009 12.3463 11.2023 12.6136C11.1179 12.8306 11.0177 13.1562 10.9903 13.7565C10.9607 14.4054 10.9545 14.6001 10.9545 16.2432C10.9545 17.8863 10.9607 18.081 10.9903 18.7299C11.0177 19.3302 11.1179 19.6558 11.2023 19.8729C11.3008 20.1397 11.458 20.3819 11.6622 20.5806C11.8608 20.7847 12.103 20.942 12.3699 21.0404C12.587 21.1249 12.9126 21.225 13.5128 21.2524C14.1618 21.2821 14.3559 21.2882 15.9996 21.2882C17.6432 21.2882 17.8373 21.2821 18.4863 21.2524C19.0865 21.225 19.4121 21.1249 19.6292 21.0404C19.9162 20.9285 20.1215 20.7959 20.3369 20.5806C20.5411 20.3819 20.6983 20.1397 20.7968 19.8729C20.8812 19.6558 20.9814 19.3302 21.0088 18.7299C21.0384 18.081 21.0446 17.8863 21.0446 16.2432C21.0446 14.6001 21.0384 14.4054 21.0088 13.7565C20.9814 13.1562 20.8812 12.8306 20.7968 12.6136C20.6849 12.3266 20.5523 12.1212 20.3369 11.9059C20.1383 11.7017 19.8964 11.5446 19.6292 11.446C19.4121 11.3615 19.0865 11.2614 18.4863 11.234ZM15.2135 18.1403C15.6525 18.323 16.1413 18.3477 16.5964 18.21C17.0516 18.0724 17.4448 17.7811 17.709 17.3857C17.9732 16.9904 18.0919 16.5156 18.0449 16.0424C17.9979 15.5693 17.7881 15.1271 17.4513 14.7915C17.2366 14.5769 16.977 14.4126 16.6912 14.3104C16.4054 14.2082 16.1005 14.1707 15.7984 14.2005C15.4964 14.2303 15.2047 14.3267 14.9443 14.4827C14.684 14.6388 14.4615 14.8506 14.2929 15.103C14.1242 15.3553 14.0136 15.642 13.9691 15.9422C13.9245 16.2424 13.947 16.5488 14.0351 16.8393C14.1231 17.1298 14.2745 17.3971 14.4783 17.6221C14.682 17.847 14.9332 18.024 15.2135 18.1403ZM13.7629 14.0066C14.0566 13.7128 14.4053 13.4798 14.7891 13.3209C15.1729 13.1619 15.5842 13.0801 15.9996 13.0801C16.4149 13.0801 16.8262 13.1619 17.21 13.3209C17.5938 13.4798 17.9425 13.7128 18.2362 14.0066C18.5299 14.3003 18.7629 14.649 18.9219 15.0327C19.0808 15.4165 19.1626 15.8278 19.1626 16.2432C19.1626 16.6586 19.0808 17.0699 18.9219 17.4537C18.7629 17.8374 18.5299 18.1861 18.2362 18.4798C17.643 19.073 16.8385 19.4063 15.9996 19.4063C15.1606 19.4063 14.3561 19.073 13.7629 18.4798C13.1697 17.8867 12.8365 17.0821 12.8365 16.2432C12.8365 15.4043 13.1697 14.5998 13.7629 14.0066ZM19.8642 13.5512C19.937 13.4825 19.9952 13.3999 20.0355 13.3084C20.0758 13.2168 20.0973 13.118 20.0988 13.018C20.1003 12.9179 20.0816 12.8186 20.044 12.7259C20.0064 12.6332 19.9506 12.5489 19.8798 12.4782C19.8091 12.4074 19.7248 12.3516 19.6321 12.314C19.5394 12.2764 19.4401 12.2577 19.34 12.2592C19.24 12.2607 19.1412 12.2822 19.0496 12.3225C18.9581 12.3628 18.8755 12.421 18.8068 12.4938C18.6733 12.6354 18.6002 12.8234 18.603 13.018C18.6059 13.2126 18.6844 13.3984 18.822 13.536C18.9596 13.6736 19.1454 13.7521 19.34 13.755C19.5346 13.7578 19.7226 13.6847 19.8642 13.5512Z" fill="#F5F8FB"/>
</svg>
