<svg width="32" height="33" viewBox="0 0 32 33" fill="none" xmlns="http://www.w3.org/2000/svg">
<rect x="1" y="1.24316" width="30" height="30" stroke="#D0D7FB" stroke-opacity="0.17" stroke-width="2"/>
<path d="M21.0958 12.3632C21.6672 12.0057 22.0947 11.4429 22.2986 10.7797C21.7616 11.1131 21.1742 11.3479 20.5616 11.4741C19.7123 10.534 18.3667 10.3052 17.2767 10.9156C16.1866 11.526 15.622 12.8244 15.8983 14.0854C13.699 13.9699 11.65 12.8827 10.2611 11.0946C9.53624 12.4028 9.90665 14.0752 11.1076 14.9165C10.6733 14.9019 10.2487 14.7788 9.86907 14.5576C9.86907 14.5696 9.86907 14.5816 9.86907 14.5937C9.86932 15.9564 10.7872 17.1303 12.0637 17.4004C11.6609 17.5151 11.2384 17.5319 10.8284 17.4498C11.1874 18.6152 12.2138 19.4136 13.3837 19.4374C12.4148 20.2332 11.2181 20.6648 9.98635 20.6627C9.76802 20.663 9.54986 20.6499 9.33301 20.6233C10.5839 21.4644 12.0397 21.9109 13.5265 21.9093C15.5951 21.9242 17.583 21.0708 19.0457 19.5401C20.5083 18.0095 21.3237 15.9292 21.3093 13.7646C21.3093 13.6405 21.3065 13.5171 21.301 13.3944C21.8367 12.9892 22.2991 12.4874 22.6663 11.9123C22.1673 12.1438 21.6379 12.2958 21.0958 12.3632Z" fill="#F5F8FB"/>
</svg>
