<svg width="380" height="66" viewBox="0 0 380 66" fill="none" xmlns="http://www.w3.org/2000/svg">
<rect x="0.5" y="0.5" width="379" height="65" rx="4.5" stroke="#9747FF" stroke-dasharray="10 5"/>
<path d="M39.6441 26.1799C40.5012 25.6438 41.1425 24.7995 41.4483 23.8047C40.6429 24.3048 39.7618 24.657 38.8429 24.8463C37.569 23.4361 35.5505 23.0929 33.9155 24.0085C32.2804 24.9241 31.4335 26.8718 31.848 28.7632C28.549 28.5899 25.4754 26.9592 23.3921 24.277C22.3048 26.2394 22.8605 28.748 24.6618 30.0098C24.0104 29.9879 23.3735 29.8034 22.8041 29.4716C22.8041 29.4896 22.8041 29.5076 22.8041 29.5256C22.8045 31.5698 24.1813 33.3306 26.096 33.7357C25.4918 33.9077 24.858 33.9331 24.243 33.8098C24.7815 35.5579 26.3212 36.7555 28.0761 36.7912C26.6227 37.985 24.8277 38.6323 22.98 38.6292C22.6525 38.6297 22.3253 38.6099 22 38.5701C23.8763 39.8318 26.06 40.5015 28.2903 40.4991C31.3931 40.5214 34.375 39.2414 36.569 36.9453C38.763 34.6493 39.986 31.5289 39.9644 28.282C39.9644 28.0959 39.9603 27.9108 39.952 27.7267C40.7556 27.119 41.4491 26.3662 42 25.5036C41.2514 25.8508 40.4573 26.0788 39.6441 26.1799Z" fill="#F5F8FB"/>
<path d="M58.002 32.0614C58.0031 37.0111 61.5804 41.2255 66.439 42.0012V34.9692H63.902V32.0614H66.442V29.8479C66.3284 28.799 66.6845 27.7536 67.4136 26.9953C68.1427 26.237 69.1693 25.8444 70.215 25.9238C70.9655 25.936 71.7141 26.0033 72.455 26.1251V28.5992H71.191C70.7558 28.5419 70.3183 28.6865 70.0017 28.9923C69.6851 29.2981 69.5237 29.732 69.563 30.1718V32.0614H72.334L71.891 34.9702H69.563V42.0012C74.8174 41.1657 78.502 36.3373 77.9475 31.0141C77.3929 25.6908 72.7932 21.7362 67.4808 22.0151C62.1683 22.2941 58.0028 26.709 58.002 32.0614Z" fill="#F5F8FB"/>
<path d="M115.547 22.4227C115.137 22.1145 114.494 22.0704 113.83 22.3074H113.828C113.129 22.5565 94.0354 29.8277 93.2581 30.1247C93.1167 30.1684 91.882 30.5774 92.0092 31.4885C92.1227 32.3099 93.1151 32.6501 93.2362 32.6893L98.0905 34.165C98.4125 35.1168 99.5998 38.6283 99.8623 39.3785C100.026 39.8462 100.293 40.4607 100.761 40.5871C101.171 40.7277 101.58 40.5993 101.844 40.4151L104.812 37.9712L109.602 41.2884L109.717 41.349C110.042 41.4769 110.354 41.5409 110.651 41.5409C110.881 41.5409 111.101 41.5026 111.312 41.426C112.03 41.1643 112.317 40.5571 112.347 40.4883L115.926 23.974C116.144 23.092 115.84 22.6432 115.547 22.4227ZM102.372 34.7553L100.734 38.6322L99.0965 33.786L111.651 25.5475L102.372 34.7553Z" fill="#F5F8FB"/>
<path d="M151.252 25.9219C151.031 24.7535 149.978 23.9027 148.755 23.6371C146.925 23.2656 143.539 23 139.875 23C136.214 23 132.774 23.2656 130.942 23.6371C129.721 23.9027 128.666 24.6996 128.444 25.9219C128.221 27.25 128 29.1094 128 31.5C128 33.8906 128.221 35.75 128.499 37.0781C128.722 38.2465 129.775 39.0973 130.996 39.3629C132.938 39.7344 136.268 40 139.932 40C143.595 40 146.925 39.7344 148.868 39.3629C150.088 39.0973 151.142 38.3004 151.365 37.0781C151.586 35.75 151.864 33.8367 151.92 31.5C151.807 29.1094 151.53 27.25 151.252 25.9219ZM136.879 35.2188V27.7812L143.65 31.5L136.879 35.2188Z" fill="#F5F8FB"/>
<path d="M183.033 22.7692H168.967C167.755 22.7692 166.77 23.7552 166.77 24.967V39.033C166.77 40.2448 167.755 41.2308 168.967 41.2308H183.033C184.245 41.2308 185.231 40.2448 185.231 39.033V24.967C185.231 23.7552 184.245 22.7692 183.033 22.7692ZM181.278 30.8233C181.178 30.8325 181.077 30.8387 180.974 30.8387C179.821 30.8387 178.808 30.2457 178.219 29.3494C178.219 31.7007 178.219 34.3758 178.219 34.4207C178.219 36.4905 176.541 38.1688 174.471 38.1688C172.401 38.1688 170.722 36.4905 170.722 34.4207C170.722 32.3508 172.401 30.6725 174.471 30.6725C174.549 30.6725 174.625 30.6796 174.702 30.6844V32.5314C174.625 32.5222 174.55 32.5081 174.471 32.5081C173.414 32.5081 172.558 33.3644 172.558 34.4211C172.558 35.4778 173.414 36.3341 174.471 36.3341C175.527 36.3341 176.461 35.5015 176.461 34.4448C176.461 34.4031 176.479 25.8321 176.479 25.8321H178.244C178.41 27.4105 179.685 28.6563 181.278 28.7705V30.8233Z" fill="#F5F8FB"/>
<path d="M219.951 25.7743C218.047 24.267 215.036 24.0115 214.907 24.0023C214.707 23.9858 214.516 24.0961 214.434 24.278C214.427 24.2891 214.361 24.438 214.289 24.6696C215.548 24.8791 217.095 25.3001 218.494 26.1548C218.718 26.2908 218.787 26.5813 218.649 26.8019C218.557 26.9471 218.402 27.0261 218.242 27.0261C218.156 27.0261 218.068 27.0022 217.989 26.9544C215.583 25.4857 212.579 25.4122 212 25.4122C211.421 25.4122 208.415 25.4857 206.011 26.9544C205.786 27.0923 205.491 27.0243 205.353 26.8037C205.213 26.5813 205.282 26.2927 205.506 26.1548C206.905 25.3019 208.452 24.8791 209.711 24.6714C209.639 24.438 209.573 24.2909 209.568 24.278C209.484 24.0961 209.295 23.9821 209.093 24.0023C208.964 24.0115 205.953 24.267 204.023 25.7945C203.016 26.7118 201 32.0719 201 36.706C201 36.7887 201.022 36.8677 201.064 36.9394C202.453 39.3438 206.248 39.9724 207.113 40C207.117 40 207.122 40 207.128 40C207.281 40 207.425 39.9283 207.514 39.807L208.389 38.6232C206.029 38.024 204.824 37.0056 204.755 36.9449C204.557 36.774 204.538 36.4762 204.714 36.2814C204.888 36.0865 205.19 36.0681 205.388 36.2391C205.416 36.2648 207.636 38.1177 212 38.1177C216.372 38.1177 218.591 36.2575 218.613 36.2391C218.811 36.07 219.112 36.0865 219.288 36.2832C219.462 36.478 219.443 36.774 219.245 36.9449C219.176 37.0056 217.971 38.024 215.611 38.6232L216.486 39.807C216.575 39.9283 216.719 40 216.872 40C216.878 40 216.883 40 216.887 40C217.752 39.9724 221.547 39.3438 222.936 36.9394C222.978 36.8677 223 36.7887 223 36.706C223 32.0719 220.984 26.7118 219.951 25.7743ZM208.891 34.8237C207.967 34.8237 207.217 33.9818 207.217 32.9414C207.217 31.901 207.967 31.0591 208.891 31.0591C209.816 31.0591 210.565 31.901 210.565 32.9414C210.565 33.9818 209.816 34.8237 208.891 34.8237ZM215.109 34.8237C214.184 34.8237 213.435 33.9818 213.435 32.9414C213.435 31.901 214.184 31.0591 215.109 31.0591C216.033 31.0591 216.783 31.901 216.783 32.9414C216.783 33.9818 216.033 34.8237 215.109 34.8237Z" fill="#F5F8FB"/>
<path d="M255.864 22.7692H240.133C239.379 22.7692 238.77 23.3642 238.77 24.0998V39.8966C238.77 40.6322 239.379 41.2308 240.133 41.2308H255.864C256.618 41.2308 257.231 40.6322 257.231 39.9002V24.0998C257.231 23.3642 256.618 22.7692 255.864 22.7692ZM244.247 38.5012H241.506V29.6887H244.247V38.5012ZM242.877 28.488C241.997 28.488 241.286 27.7776 241.286 26.9014C241.286 26.0252 241.997 25.3149 242.877 25.3149C243.753 25.3149 244.463 26.0252 244.463 26.9014C244.463 27.774 243.753 28.488 242.877 28.488ZM254.502 38.5012H251.765V34.2175C251.765 33.1971 251.747 31.881 250.34 31.881C248.916 31.881 248.7 32.9952 248.7 34.1454V38.5012H245.967V29.6887H248.592V30.893H248.628C248.992 30.2007 249.886 29.4687 251.217 29.4687C253.989 29.4687 254.502 31.2933 254.502 33.6659V38.5012Z" fill="#F5F8FB"/>
<path fill-rule="evenodd" clip-rule="evenodd" d="M285.253 40.5038C289.425 39.8391 292.613 36.2249 292.613 31.8661C292.613 27.0352 288.697 23.119 283.866 23.119C279.035 23.119 275.119 27.0352 275.119 31.8661C275.119 36.2249 278.307 39.8391 282.479 40.5038C282.471 40.4837 282.467 40.4617 282.467 40.4388V34.4908C282.467 34.3942 282.388 34.3158 282.292 34.3158H280.542C280.446 34.3158 280.367 34.2375 280.367 34.1409V32.0416C280.367 31.945 280.446 31.8667 280.542 31.8667H282.292C282.388 31.8667 282.467 31.7883 282.467 31.6917V29.4175C282.467 28.3678 283.586 26.6184 285.266 26.6184H287.54C287.637 26.6184 287.715 26.6967 287.715 26.7934V28.8927C287.715 28.9893 287.637 29.0676 287.54 29.0676H286.49C286.14 29.0676 285.266 29.4175 285.266 30.1172V31.6918C285.266 31.7884 285.344 31.8667 285.441 31.8667H287.19C287.287 31.8667 287.365 31.945 287.365 32.0416V34.1409C287.365 34.2375 287.287 34.3158 287.19 34.3158H285.441C285.344 34.3158 285.266 34.3942 285.266 34.4908V40.4388C285.266 40.4617 285.261 40.4837 285.253 40.5038Z" fill="#F5F8FB"/>
<path fill-rule="evenodd" clip-rule="evenodd" d="M316.195 22.8246C317.179 22.7793 317.493 22.7692 320 22.7692C322.508 22.7692 322.822 22.7801 323.805 22.8246C324.789 22.8691 325.46 23.026 326.047 23.2534C326.662 23.4859 327.22 23.8492 327.682 24.3192C328.152 24.7799 328.514 25.3371 328.746 25.953C328.974 26.5404 329.13 27.2117 329.176 28.1936C329.221 29.1796 329.231 29.4934 329.231 32C329.231 34.5074 329.22 34.8213 329.176 35.8056C329.131 36.7874 328.974 37.4587 328.746 38.0462C328.514 38.6622 328.151 39.2203 327.682 39.6817C327.22 40.1516 326.662 40.5141 326.047 40.7457C325.46 40.974 324.789 41.1301 323.807 41.1754C322.822 41.2207 322.508 41.2308 320 41.2308C317.493 41.2308 317.179 41.2199 316.195 41.1754C315.213 41.1309 314.542 40.974 313.954 40.7457C313.338 40.5141 312.78 40.151 312.319 39.6817C311.849 39.2207 311.486 38.6628 311.254 38.047C311.026 37.4596 310.87 36.7882 310.825 35.8064C310.78 34.8204 310.77 34.5066 310.77 32C310.77 29.4926 310.78 29.1787 310.825 28.1952C310.869 27.2117 311.026 26.5404 311.254 25.953C311.486 25.3371 311.85 24.7793 312.319 24.3183C312.78 23.8488 313.338 23.4854 313.953 23.2534C314.541 23.026 315.212 22.8699 316.194 22.8246H316.195ZM323.73 24.4861C322.757 24.4417 322.465 24.4324 320 24.4324C317.536 24.4324 317.244 24.4417 316.27 24.4861C315.37 24.5273 314.881 24.6775 314.556 24.8042C314.125 24.972 313.817 25.1709 313.494 25.494C313.188 25.7919 312.952 26.1546 312.804 26.5555C312.678 26.8811 312.528 27.3695 312.486 28.2699C312.442 29.2434 312.433 29.5354 312.433 32C312.433 34.4646 312.442 34.7566 312.486 35.7301C312.528 36.6305 312.678 37.1189 312.804 37.4445C312.952 37.8448 313.188 38.2081 313.494 38.506C313.792 38.8123 314.156 39.0481 314.556 39.1958C314.881 39.3225 315.37 39.4727 316.27 39.5138C317.244 39.5583 317.535 39.5676 320 39.5676C322.466 39.5676 322.757 39.5583 323.73 39.5138C324.631 39.4727 325.119 39.3225 325.445 39.1958C325.875 39.028 326.183 38.8291 326.506 38.506C326.813 38.2081 327.048 37.8448 327.196 37.4445C327.323 37.1189 327.473 36.6305 327.514 35.7301C327.559 34.7566 327.568 34.4646 327.568 32C327.568 29.5354 327.559 29.2434 327.514 28.2699C327.473 27.3695 327.323 26.8811 327.196 26.5555C327.028 26.125 326.829 25.8171 326.506 25.494C326.208 25.1877 325.846 24.9521 325.445 24.8042C325.119 24.6775 324.631 24.5273 323.73 24.4861ZM318.821 34.8456C319.48 35.1197 320.213 35.1567 320.896 34.9503C321.578 34.7438 322.168 34.3068 322.564 33.7138C322.961 33.1208 323.139 32.4086 323.068 31.6988C322.998 30.9891 322.683 30.3258 322.178 29.8224C321.856 29.5005 321.466 29.2541 321.038 29.1008C320.609 28.9475 320.152 28.8912 319.699 28.9359C319.246 28.9806 318.808 29.1252 318.417 29.3593C318.027 29.5934 317.693 29.9111 317.44 30.2897C317.187 30.6682 317.021 31.0981 316.955 31.5485C316.888 31.9988 316.922 32.4584 317.054 32.8941C317.186 33.3298 317.413 33.7309 317.718 34.0683C318.024 34.4057 318.401 34.6712 318.821 34.8456ZM316.645 28.645C317.086 28.2045 317.609 27.855 318.185 27.6165C318.76 27.3781 319.377 27.2554 320 27.2554C320.623 27.2554 321.24 27.3781 321.816 27.6165C322.392 27.855 322.915 28.2045 323.355 28.645C323.796 29.0856 324.145 29.6087 324.384 30.1843C324.622 30.7599 324.745 31.3769 324.745 32C324.745 32.6231 324.622 33.24 324.384 33.8157C324.145 34.3913 323.796 34.9144 323.355 35.355C322.465 36.2448 321.259 36.7446 320 36.7446C318.742 36.7446 317.535 36.2448 316.645 35.355C315.756 34.4652 315.256 33.2584 315.256 32C315.256 30.7416 315.756 29.5348 316.645 28.645ZM325.797 27.962C325.906 27.859 325.994 27.7351 326.054 27.5977C326.115 27.4604 326.147 27.3122 326.149 27.1622C326.151 27.0121 326.123 26.8631 326.067 26.724C326.011 26.585 325.927 26.4586 325.821 26.3525C325.715 26.2463 325.588 26.1626 325.449 26.1062C325.31 26.0497 325.161 26.0218 325.011 26.024C324.861 26.0262 324.713 26.0584 324.575 26.1189C324.438 26.1794 324.314 26.2668 324.211 26.3759C324.011 26.5883 323.901 26.8703 323.906 27.1622C323.91 27.454 324.028 27.7328 324.234 27.9392C324.44 28.1456 324.719 28.2634 325.011 28.2677C325.303 28.2719 325.585 28.1623 325.797 27.962Z" fill="#F5F8FB"/>
<path fill-rule="evenodd" clip-rule="evenodd" d="M362.231 32C362.231 37.098 358.098 41.2308 353 41.2308C347.902 41.2308 343.77 37.098 343.77 32C343.77 26.902 347.902 22.7692 353 22.7692C358.098 22.7692 362.231 26.902 362.231 32ZM353.33 29.5834C352.433 29.9568 350.638 30.7297 347.947 31.9021C347.51 32.0759 347.281 32.2459 347.261 32.4121C347.225 32.693 347.577 32.8036 348.056 32.9543C348.121 32.9748 348.189 32.996 348.258 33.0185C348.729 33.1717 349.363 33.3509 349.693 33.358C349.992 33.3645 350.326 33.2413 350.694 32.9883C353.208 31.2911 354.506 30.4333 354.588 30.4148C354.645 30.4017 354.725 30.3853 354.779 30.4333C354.833 30.4813 354.827 30.5721 354.822 30.5965C354.787 30.7451 353.406 32.0289 352.691 32.6933C352.468 32.9004 352.31 33.0473 352.278 33.0808C352.206 33.156 352.132 33.2271 352.061 33.2954C351.623 33.7175 351.295 34.034 352.079 34.5509C352.456 34.7993 352.758 35.0047 353.059 35.2097C353.387 35.4335 353.715 35.6567 354.139 35.9347C354.247 36.0055 354.351 36.0791 354.451 36.1507C354.834 36.4234 355.177 36.6683 355.602 36.6293C355.848 36.6066 356.103 36.3746 356.232 35.6829C356.538 34.0481 357.139 30.5061 357.278 29.0465C357.29 28.9186 357.275 28.7549 357.263 28.6831C357.251 28.6112 357.225 28.5089 357.131 28.4331C357.021 28.3434 356.85 28.3244 356.774 28.3258C356.427 28.3319 355.894 28.5171 353.33 29.5834Z" fill="#F5F8FB"/>
</svg>
