<svg width="24" height="25" viewBox="0 0 24 25" fill="none" xmlns="http://www.w3.org/2000/svg">
<path d="M19.9511 6.01748C18.0474 4.51018 15.0358 4.25467 14.9069 4.24548C14.707 4.22893 14.5165 4.33923 14.4343 4.52121C14.4268 4.53223 14.3614 4.68113 14.2886 4.91274C15.5477 5.12229 17.0946 5.54323 18.4939 6.39799C18.7181 6.53401 18.7872 6.82445 18.6489 7.04503C18.5574 7.19024 18.4023 7.26929 18.2417 7.26929C18.1557 7.26929 18.0679 7.24539 17.9895 7.1976C15.5832 5.72889 12.5791 5.65536 12 5.65536C11.4209 5.65536 8.41491 5.72889 6.01053 7.1976C5.78635 7.33546 5.49117 7.26745 5.35292 7.04687C5.21281 6.82445 5.28193 6.53585 5.50611 6.39799C6.9054 5.54507 8.45228 5.12229 9.71145 4.91458C9.63859 4.68113 9.5732 4.53407 9.5676 4.52121C9.48353 4.33923 9.29484 4.22526 9.09307 4.24548C8.96416 4.25467 5.95262 4.51018 4.02276 6.0377C3.0158 6.95496 1 12.3151 1 16.9491C1 17.0319 1.02242 17.1109 1.06352 17.1826C2.45346 19.5869 6.24779 20.2156 7.11277 20.2432C7.11651 20.2432 7.12211 20.2432 7.12772 20.2432C7.28091 20.2432 7.42476 20.1715 7.51444 20.0502L8.38876 18.8664C6.02921 18.2671 4.82422 17.2488 4.7551 17.1881C4.55707 17.0172 4.53838 16.7194 4.71399 16.5245C4.88774 16.3297 5.19039 16.3113 5.38842 16.4822C5.41644 16.508 7.63587 18.3609 12 18.3609C16.3716 18.3609 18.591 16.5006 18.6135 16.4822C18.8115 16.3131 19.1123 16.3297 19.2879 16.5264C19.4616 16.7212 19.4429 17.0172 19.2449 17.1881C19.1758 17.2488 17.9708 18.2671 15.6112 18.8664L16.4856 20.0502C16.5752 20.1715 16.7191 20.2432 16.8723 20.2432C16.8779 20.2432 16.8835 20.2432 16.8872 20.2432C17.7522 20.2156 21.5465 19.5869 22.9365 17.1826C22.9776 17.1109 23 17.0319 23 16.9491C23 12.3151 20.9842 6.95496 19.9511 6.01748ZM8.8913 15.0668C7.96654 15.0668 7.21739 14.225 7.21739 13.1846C7.21739 12.1441 7.96654 11.3023 8.8913 11.3023C9.81607 11.3023 10.5652 12.1441 10.5652 13.1846C10.5652 14.225 9.81607 15.0668 8.8913 15.0668ZM15.1087 15.0668C14.1839 15.0668 13.4348 14.225 13.4348 13.1846C13.4348 12.1441 14.1839 11.3023 15.1087 11.3023C16.0335 11.3023 16.7826 12.1441 16.7826 13.1846C16.7826 14.225 16.0335 15.0668 15.1087 15.0668Z" fill="#F5F8FB"/>
</svg>
