<svg width="24" height="25" viewBox="0 0 24 25" fill="none" xmlns="http://www.w3.org/2000/svg">
<path d="M2.00098 12.3046C2.00214 17.2542 5.57938 21.4687 10.438 22.2444V15.2124H7.90098V12.3046H10.441V10.091C10.3274 9.04214 10.6835 7.9968 11.4126 7.2385C12.1417 6.4802 13.1683 6.08754 14.214 6.16701C14.9645 6.17921 15.7132 6.24646 16.454 6.36824V8.84238H15.19C14.7548 8.78504 14.3173 8.92964 14.0007 9.23545C13.6842 9.54127 13.5227 9.9752 13.562 10.415V12.3046H16.333L15.89 15.2134H13.562V22.2444C18.8165 21.4089 22.5011 16.5805 21.9465 11.2572C21.3919 5.93395 16.7923 1.97932 11.4798 2.25827C6.16734 2.53723 2.00182 6.95212 2.00098 12.3046Z" fill="#F5F8FB"/>
</svg>
