<svg width="24" height="25" viewBox="0 0 24 25" fill="none" xmlns="http://www.w3.org/2000/svg">
<path d="M23.5468 2.6659C23.1374 2.35768 22.4944 2.31358 21.8295 2.55056H21.8285C21.1292 2.79965 2.03537 10.0708 1.25808 10.3679C1.11671 10.4115 -0.118008 10.8205 0.00917513 11.7316C0.122712 12.553 1.11507 12.8932 1.23625 12.9325L6.0905 14.4082C6.41255 15.3599 7.59977 18.8715 7.86233 19.6217C8.02608 20.0893 8.293 20.7038 8.7608 20.8303C9.17128 20.9708 9.57957 20.8424 9.84376 20.6583L12.8116 18.2143L17.6025 21.5315L17.7166 21.5921C18.0419 21.7201 18.3536 21.784 18.6511 21.784C18.8809 21.784 19.1014 21.7457 19.3121 21.6692C20.0299 21.4075 20.317 20.8003 20.347 20.7314L23.9256 4.21715C24.144 3.33515 23.8405 2.8864 23.5468 2.6659ZM10.3716 14.9984L8.73405 18.8754L7.0965 14.0292L19.6511 5.79071L10.3716 14.9984Z" fill="#F5F8FB"/>
</svg>
