<svg width="24" height="25" viewBox="0 0 24 25" fill="none" xmlns="http://www.w3.org/2000/svg">
<path d="M19.0333 3.01245H4.96733C3.75547 3.01245 2.76953 3.99839 2.76953 5.21025V19.2762C2.76953 20.4881 3.75547 21.474 4.96733 21.474H19.0333C20.2451 21.474 21.2311 20.4881 21.2311 19.2762V5.21025C21.2311 3.99839 20.2451 3.01245 19.0333 3.01245ZM17.2777 11.0665C17.1779 11.0757 17.0768 11.0819 16.9744 11.0819C15.8214 11.0819 14.8082 10.4889 14.2188 9.59267C14.2188 11.9439 14.2188 14.619 14.2188 14.6639C14.2188 16.7338 12.5405 18.412 10.4706 18.412C8.40074 18.412 6.7225 16.7338 6.7225 14.6639C6.7225 12.594 8.40074 10.9157 10.4706 10.9157C10.5489 10.9157 10.6254 10.9228 10.7023 10.9276V12.7746C10.6254 12.7654 10.5498 12.7514 10.4706 12.7514C9.41393 12.7514 8.55766 13.6076 8.55766 14.6643C8.55766 15.721 9.41393 16.5773 10.4706 16.5773C11.5273 16.5773 12.4605 15.7448 12.4605 14.6881C12.4605 14.6463 12.479 6.07531 12.479 6.07531H14.2443C14.4104 7.65377 15.6847 8.89948 17.2777 9.01377V11.0665Z" fill="#F5F8FB"/>
</svg>
