<svg width="24" height="25" viewBox="0 0 24 25" fill="none" xmlns="http://www.w3.org/2000/svg">
<path d="M19.6441 6.42322C20.5012 5.88704 21.1425 5.04276 21.4483 4.04803C20.6429 4.54808 19.7618 4.90033 18.8429 5.08955C17.569 3.67937 15.5505 3.3362 13.9155 4.25179C12.2804 5.16737 11.4335 7.11505 11.848 9.00651C8.54901 8.8332 5.47544 7.20252 3.3921 4.52026C2.30485 6.48267 2.86046 8.99129 4.66182 10.2531C4.01043 10.2312 3.37348 10.0467 2.80409 9.71487C2.80409 9.73288 2.80409 9.75088 2.80409 9.76889C2.80447 11.8131 4.18125 13.5739 6.09599 13.979C5.49179 14.151 4.85802 14.1763 4.24304 14.053C4.78153 15.8012 6.32121 16.9988 8.07611 17.0345C6.62265 18.2283 4.82769 18.8756 2.98002 18.8725C2.65252 18.8729 2.32528 18.8532 2 18.8134C3.87627 20.0751 6.06002 20.7447 8.29028 20.7424C11.3931 20.7647 14.375 19.4847 16.569 17.1886C18.763 14.8926 19.986 11.7721 19.9644 8.52527C19.9644 8.33918 19.9603 8.15408 19.952 7.96999C20.7556 7.36229 21.4491 6.60946 22 5.74688C21.2514 6.09412 20.4573 6.32209 19.6441 6.42322Z" fill="#F5F8FB"/>
</svg>
