<svg width="24" height="25" viewBox="0 0 24 25" fill="none" xmlns="http://www.w3.org/2000/svg">
<path d="M23.2523 6.16504C23.0312 4.9967 21.9776 4.14587 20.7549 3.88025C18.9253 3.50879 15.5391 3.24316 11.8755 3.24316C8.21396 3.24316 4.77359 3.50879 2.94177 3.88025C1.72127 4.14587 0.665529 4.94275 0.444408 6.16504C0.22112 7.49316 0 9.35254 0 11.7432C0 14.1338 0.22112 15.9932 0.498605 17.3213C0.721892 18.4896 1.77547 19.3405 2.99596 19.6061C4.93835 19.9775 8.26816 20.2432 11.9318 20.2432C15.5955 20.2432 18.9253 19.9775 20.8677 19.6061C22.0882 19.3405 23.1417 18.5436 23.365 17.3213C23.5862 15.9932 23.8636 14.0798 23.92 11.7432C23.8073 9.35254 23.5298 7.49316 23.2523 6.16504ZM8.87949 15.4619V8.02441L15.6497 11.7432L8.87949 15.4619Z" fill="#F5F8FB"/>
</svg>
